<svg xmlns="http://www.w3.org/2000/svg" viewBox="0 0 90 90"><defs><style>.cls-1{fill:#18b2e7}.cls-2{fill:#010101}.cls-3{fill:#fff}</style></defs><title>behance</title><g id="Layer_2" data-name="Layer 2"><g id="Layer_1-2" data-name="Layer 1"><g id="behance"><rect class="cls-1" width="90" height="90" rx="5.28" ry="5.28"/><path class="cls-2" d="M42.3 44.44a7 7 0 0 0 2.22-1.65 6.48 6.48 0 0 0 1.34-4.27 7.41 7.41 0 0 0-1.33-4.43Q42.32 31.08 37 31H23v29h13.06a19.86 19.86 0 0 0 4.1-.39 8 8 0 0 0 5.33-3.74 8.49 8.49 0 0 0 1.29-4.62A7.72 7.72 0 0 0 45.66 47a6.5 6.5 0 0 0-3.36-2.56zM28 36h5.91a10.26 10.26 0 0 1 3.21.42 2.44 2.44 0 0 1 1.46 2.51 2.57 2.57 0 0 1-1.1 2.39 5.47 5.47 0 0 1-2.88.68H28zm10.32 18.47a7.07 7.07 0 0 1-3 .53H28v-8h7.39a7.63 7.63 0 0 1 3 .51 3.22 3.22 0 0 1 1.91 3.22 3.77 3.77 0 0 1-1.98 3.74zM69.9 46.55a10.94 10.94 0 0 0-1.79-4.63 9.09 9.09 0 0 0-3.87-3.31A12.69 12.69 0 0 0 59 37.56a10.81 10.81 0 0 0-8 3.1q-3.08 3.1-3.08 8.93 0 6.21 3.42 9a12.19 12.19 0 0 0 7.89 2.75q5.42 0 8.43-3.26A7.35 7.35 0 0 0 69.79 54h-6a4.54 4.54 0 0 1-4.46 2.57 6 6 0 0 1-3.23-.84q-2.19-1.36-2.32-4.73h16.31a28.57 28.57 0 0 0-.19-4.45zM54.12 47a5.86 5.86 0 0 1 1.5-3.33A4.46 4.46 0 0 1 59 42.44a4.94 4.94 0 0 1 3.34 1.16 4.68 4.68 0 0 1 1.5 3.4zM53 32h12v4H53z"/><path class="cls-3" d="M41.3 43.44a7 7 0 0 0 2.22-1.65 6.49 6.49 0 0 0 1.34-4.27 7.41 7.41 0 0 0-1.33-4.42Q41.31 30.08 36 30H22v29h13.06a20 20 0 0 0 4.1-.39 8 8 0 0 0 5.33-3.74 8.49 8.49 0 0 0 1.29-4.62A7.72 7.72 0 0 0 44.66 46a6.5 6.5 0 0 0-3.36-2.56zM27 35h5.92a10.27 10.27 0 0 1 3.21.42 2.44 2.44 0 0 1 1.46 2.51 2.57 2.57 0 0 1-1.1 2.39 5.46 5.46 0 0 1-2.88.68H27zm10.32 18.47a7.08 7.08 0 0 1-3 .53H27v-8h7.39a7.62 7.62 0 0 1 3 .51 3.23 3.23 0 0 1 1.91 3.22 3.77 3.77 0 0 1-1.98 3.74zM69 45.55a11 11 0 0 0-1.79-4.63 9.1 9.1 0 0 0-3.87-3.31 12.71 12.71 0 0 0-5.27-1.05 10.81 10.81 0 0 0-8 3.1Q47 42.77 47 48.6q0 6.21 3.42 9a12.19 12.19 0 0 0 7.89 2.75q5.42 0 8.43-3.26A7.33 7.33 0 0 0 68.88 53h-6a4.55 4.55 0 0 1-4.46 2.57 6 6 0 0 1-3.23-.84Q53 53.37 52.87 50h16.32a28.73 28.73 0 0 0-.19-4.45zM53.21 46a5.85 5.85 0 0 1 1.5-3.33 4.47 4.47 0 0 1 3.36-1.23 4.94 4.94 0 0 1 3.34 1.16 4.68 4.68 0 0 1 1.5 3.4zM52 31h12v4H52z"/></g></g></g></svg>