<svg xmlns="http://www.w3.org/2000/svg" viewBox="0 0 90 90"><defs><style>.cls-1{fill:#18b2e7}.cls-2{fill:#010101}.cls-3{fill:#fff}</style></defs><title>pinterest</title><g id="Layer_2" data-name="Layer 2"><g id="Layer_1-2" data-name="Layer 1"><g id="pinterest"><rect class="cls-1" width="90" height="90" rx="5.28" ry="5.28"/><path class="cls-2" d="M46.85 22.94c-12.59 0-18.95 9-18.95 16.56 0 4.56 1.73 8.61 5.43 10.13a.91.91 0 0 0 1.33-.63c.12-.47.41-1.64.54-2.13a1.28 1.28 0 0 0-.38-1.48 7.66 7.66 0 0 1-1.75-5.2c0-6.7 5-12.7 13.05-12.7 7.12 0 11 4.35 11 10.16 0 7.64-3.38 14.09-8.4 14.09a4.1 4.1 0 0 1-4.18-5.11c.8-3.36 2.34-7 2.34-9.41 0-2.17-1.16-4-3.57-4-2.84 0-5.11 2.93-5.11 6.86a10.21 10.21 0 0 0 .85 4.19l-3.4 14.45c-1 4.29-.15 9.54-.08 10.07a.35.35 0 0 0 .63.15c.26-.34 3.64-4.51 4.79-8.67.33-1.18 1.86-7.29 1.86-7.29.92 1.76 3.61 3.31 6.48 3.31 8.52 0 14.3-7.77 14.3-18.17 0-7.86-6.63-15.18-16.78-15.18z"/><path class="cls-3" d="M45.94 22C33.35 22 27 31.06 27 38.59c0 4.56 1.72 8.62 5.43 10.13a.91.91 0 0 0 1.33-.67c.12-.47.41-1.64.54-2.13a1.28 1.28 0 0 0-.38-1.48 7.64 7.64 0 0 1-1.75-5.2c0-6.7 5-12.7 13.05-12.7 7.12 0 11 4.35 11 10.16 0 7.64-3.38 14.09-8.4 14.09a4.1 4.1 0 0 1-4.18-5.11c.8-3.36 2.34-7 2.34-9.41 0-2.17-1.16-4-3.57-4-2.84 0-5.12 2.93-5.12 6.86a10.2 10.2 0 0 0 .85 4.19l-3.39 14.5a29.73 29.73 0 0 0-.08 10.07.35.35 0 0 0 .63.15c.26-.34 3.64-4.51 4.79-8.67.32-1.18 1.86-7.29 1.86-7.29.93 1.76 3.61 3.31 6.48 3.31 8.52 0 14.3-7.77 14.3-18.17 0-7.86-6.66-15.22-16.79-15.22z"/></g></g></g></svg>