<svg xmlns="http://www.w3.org/2000/svg" viewBox="0 0 90 90"><defs><style>.cls-1{fill:#18b2e7}.cls-2{fill:#010101}.cls-3{fill:#fff}</style></defs><title>vine</title><g id="Layer_2" data-name="Layer 2"><g id="Layer_1-2" data-name="Layer 1"><g id="vine"><rect class="cls-1" width="90" height="90" rx="5.28" ry="5.28"/><path class="cls-2" d="M64 46.16a13.49 13.49 0 0 1-3 .35c-5.15 0-9.12-3.6-9.12-9.85 0-3.07 1.19-4.66 2.86-4.66s2.66 1.42 2.66 4.33a16.69 16.69 0 0 1-.77 4.53s1.59 2.77 5.93 1.92a18 18 0 0 0 1.43-7c0-6.25-3.19-9.89-9-9.89-6 0-9.52 4.62-9.52 10.71s2.82 11.22 7.47 13.57a38.79 38.79 0 0 1-7 9.95c-4.7-5.69-9-13.28-10.71-28.1h-7.01C31.43 56.67 41 64.53 43.52 66a3.6 3.6 0 0 0 4 .08c2.05-1.17 8.22-7.33 11.63-14.55A22.8 22.8 0 0 0 64 51z"/><path class="cls-3" d="M63 45.16a13.48 13.48 0 0 1-3 .35c-5.15 0-9.12-3.6-9.12-9.85 0-3.07 1.19-4.66 2.86-4.66s2.66 1.42 2.66 4.33a16.7 16.7 0 0 1-.77 4.53s1.59 2.77 5.92 1.92a18 18 0 0 0 1.43-7c0-6.25-3.19-9.89-9-9.89-6 0-9.52 4.62-9.52 10.71s2.82 11.22 7.47 13.57a38.74 38.74 0 0 1-7 9.95c-4.71-5.69-9-13.28-10.71-28.1h-7C30.43 55.67 40 63.53 42.52 65a3.6 3.6 0 0 0 4 .08c2.05-1.17 8.22-7.34 11.63-14.55A22.76 22.76 0 0 0 63 50z"/></g></g></g></svg>