<svg xmlns="http://www.w3.org/2000/svg" viewBox="0 0 90 90"><defs><style>.cls-1{fill:#18b2e7;}.cls-2{fill:#010101;}.cls-3{fill:#fff;}</style></defs><title>linkedin</title><g id="Layer_2" data-name="Layer 2"><g id="Layer_1-2" data-name="Layer 1"><g id="linkedin"><rect class="cls-1" width="90" height="90" rx="5.28" ry="5.28"/><path class="cls-2" d="M34,65H26V39h8ZM29.67,35h-.06a4.51,4.51,0,0,1-4.84-4.51c0-2.57,2-4.51,5-4.51a4.53,4.53,0,0,1,4.9,4.51C34.62,33,32.72,35,29.67,35ZM66,65H57V51.55c0-3.52-1.41-5.92-4.51-5.92a4.56,4.56,0,0,0-4.3,3.19A6.06,6.06,0,0,0,48,50.93V65H39.08s.11-23.83,0-26H48v4.08c.53-1.79,3.38-4.33,7.93-4.33C61.56,38.76,66,42.5,66,50.54Z"/><path class="cls-3" d="M33,64H25V38h8ZM28.76,34H28.7a4.51,4.51,0,0,1-4.84-4.5c0-2.57,2-4.51,5-4.51a4.53,4.53,0,0,1,4.9,4.51C33.72,32,31.81,34,28.76,34ZM65,64H56V50.55c0-3.52-1.41-5.92-4.51-5.92a4.57,4.57,0,0,0-4.3,3.19A6.06,6.06,0,0,0,47,49.93V64H38.08s.11-23.83,0-26H47v4.08c.53-1.79,3.38-4.33,7.93-4.33C60.56,37.76,65,41.5,65,49.54Z"/></g></g></g></svg>